<?xml version="1.0" encoding="UTF-8" standalone="no"?>
<svg
   viewBox="0 0 17.996161 17.996161"
   version="1.1"
   id="svg827"
   sodipodi:docname="linkedin-brands.svg"
   width="17.996161"
   height="17.996161"
   inkscape:version="1.1.2 (b8e25be8, 2022-02-05)"
   xmlns:inkscape="http://www.inkscape.org/namespaces/inkscape"
   xmlns:sodipodi="http://sodipodi.sourceforge.net/DTD/sodipodi-0.dtd"
   xmlns="http://www.w3.org/2000/svg"
   xmlns:svg="http://www.w3.org/2000/svg">
  <defs
     id="defs831" />
  <sodipodi:namedview
     id="namedview829"
     pagecolor="#ffffff"
     bordercolor="#666666"
     borderopacity="1.0"
     inkscape:pageshadow="2"
     inkscape:pageopacity="0.0"
     inkscape:pagecheckerboard="true"
     showgrid="false"
     fit-margin-top="0"
     fit-margin-left="0"
     fit-margin-right="0"
     fit-margin-bottom="0"
     inkscape:zoom="14.71875"
     inkscape:cx="9.2059448"
     inkscape:cy="10.598726"
     inkscape:window-width="1366"
     inkscape:window-height="768"
     inkscape:window-x="0"
     inkscape:window-y="0"
     inkscape:window-maximized="0"
     inkscape:current-layer="layer2" />
  <!--! Font Awesome Pro 6.0.0 by @fontawesome - https://fontawesome.com License - https://fontawesome.com/license (Commercial License) Copyright 2022 Fonticons, Inc. -->
  <g
     inkscape:groupmode="layer"
     id="layer1"
     inkscape:label="BlackLetters"
     transform="translate(-215.00192,-215.00192)" />
  <g
     inkscape:groupmode="layer"
     id="layer2"
     inkscape:label="InLogo"
     transform="translate(-215.00192,-215.00192)">
    <path
       d="m 231.71264,215.00192 h -15.4293 c -0.70699,0 -1.28142,0.58246 -1.28142,1.29749 v 15.40118 c 0,0.71502 0.57443,1.29749 1.28142,1.29749 h 15.4293 c 0.70699,0 1.28544,-0.58247 1.28544,-1.29749 v -15.40118 c 0,-0.71503 -0.57845,-1.29749 -1.28544,-1.29749 z m -11.2717,15.42528 h -2.66729 v -8.58835 h 2.6713 v 8.58835 z m -1.33365,-9.76131 c -0.85562,0 -1.54654,-0.69494 -1.54654,-1.54655 0,-0.8516 0.69092,-1.54654 1.54654,-1.54654 0.85161,0 1.54655,0.69494 1.54655,1.54654 0,0.85563 -0.69093,1.54655 -1.54655,1.54655 z m 11.33196,9.76131 h -2.66729 v -4.17768 c 0,-0.99622 -0.0201,-2.27764 -1.38586,-2.27764 -1.38988,0 -1.60278,1.08459 -1.60278,2.20533 v 4.24999 h -2.66729 v -8.58835 h 2.55883 v 1.17297 h 0.0361 c 0.35751,-0.67486 1.2292,-1.38587 2.52669,-1.38587 2.69943,0 3.20155,1.77953 3.20155,4.09333 z"
       id="path825"
       style="fill:#ffffff;stroke-width:0.04017" />
  </g>
</svg>
